<svg width="242" height="56" viewBox="0 0 242 56" fill="none" xmlns="http://www.w3.org/2000/svg">
<mask id="path-1-outside-1_56_19" maskUnits="userSpaceOnUse" x="0" y="0" width="242" height="56" fill="black">
<rect fill="white" width="242" height="56"/>
<path d="M4.16051 41V4.63636H11.8487V34.6612H27.4382V41H4.16051ZM40.1646 41.5149C38.4245 41.5149 36.8739 41.2131 35.5126 40.6094C34.1513 39.9938 33.0742 39.0883 32.2811 37.8928C31.4998 36.6854 31.1092 35.1821 31.1092 33.3828C31.1092 31.8677 31.3874 30.5952 31.9437 29.5653C32.5001 28.5355 33.2576 27.7069 34.2164 27.0795C35.1752 26.4522 36.2643 25.9787 37.4835 25.6591C38.7145 25.3395 40.0048 25.1146 41.3542 24.9844C42.9404 24.8187 44.2188 24.6648 45.1895 24.5227C46.1601 24.3688 46.8644 24.1439 47.3024 23.848C47.7404 23.5521 47.9593 23.1141 47.9593 22.5341V22.4276C47.9593 21.303 47.6042 20.433 46.894 19.8175C46.1956 19.2019 45.2013 18.8942 43.911 18.8942C42.5498 18.8942 41.4667 19.196 40.6618 19.7997C39.8568 20.3916 39.3242 21.1373 39.0637 22.0369L32.068 21.4688C32.4231 19.8116 33.1215 18.3793 34.1632 17.1719C35.2048 15.9527 36.5484 15.0175 38.1937 14.3665C39.8509 13.7036 41.7685 13.3722 43.9466 13.3722C45.4617 13.3722 46.9118 13.5497 48.2967 13.9048C49.6935 14.2599 50.9305 14.8104 52.0076 15.5561C53.0967 16.3018 53.9548 17.2607 54.5822 18.4325C55.2096 19.5926 55.5233 20.9834 55.5233 22.6051V41H48.35V37.218H48.1369C47.6989 38.0703 47.113 38.822 46.3791 39.473C45.6452 40.1122 44.7633 40.6153 43.7335 40.9822C42.7037 41.3374 41.514 41.5149 40.1646 41.5149ZM42.3308 36.2947C43.4435 36.2947 44.426 36.0758 45.2782 35.6378C46.1305 35.188 46.7993 34.5843 47.2846 33.8267C47.7699 33.0691 48.0126 32.2109 48.0126 31.2521V28.358C47.7759 28.5118 47.4503 28.6539 47.036 28.7841C46.6336 28.9025 46.1779 29.0149 45.6689 29.1214C45.1599 29.2161 44.6509 29.3049 44.1419 29.3878C43.6329 29.4588 43.1712 29.5239 42.7569 29.5831C41.8691 29.7133 41.0938 29.9205 40.4309 30.2045C39.7681 30.4886 39.2531 30.8733 38.8862 31.3587C38.5192 31.8321 38.3358 32.424 38.3358 33.1342C38.3358 34.1641 38.7086 34.9512 39.4544 35.4957C40.2119 36.0284 41.1708 36.2947 42.3308 36.2947ZM68.9554 25.233V41H61.3915V13.7273H68.6003V18.5391H68.9199C69.5236 16.9529 70.5357 15.6982 71.9561 14.7749C73.3766 13.8397 75.0989 13.3722 77.123 13.3722C79.017 13.3722 80.6683 13.7865 82.0769 14.6151C83.4855 15.4437 84.5804 16.6274 85.3617 18.1662C86.1429 19.6932 86.5336 21.5161 86.5336 23.6349V41H78.9696V24.9844C78.9815 23.3153 78.5553 22.0133 77.6912 21.0781C76.8271 20.1312 75.6375 19.6577 74.1223 19.6577C73.1043 19.6577 72.2047 19.8767 71.4235 20.3146C70.6541 20.7526 70.0504 21.3918 69.6124 22.2322C69.1863 23.0608 68.9673 24.0611 68.9554 25.233ZM104.782 51.7955C102.332 51.7955 100.231 51.4581 98.4787 50.7834C96.7386 50.1205 95.3537 49.215 94.3239 48.0668C93.294 46.9186 92.6252 45.6283 92.3175 44.196L99.3132 43.255C99.5263 43.7995 99.8636 44.3085 100.325 44.782C100.787 45.2554 101.397 45.6342 102.154 45.9183C102.924 46.2143 103.859 46.3622 104.96 46.3622C106.605 46.3622 107.96 45.9598 109.026 45.1548C110.103 44.3617 110.641 43.0301 110.641 41.1598V36.1705H110.322C109.99 36.928 109.493 37.6442 108.83 38.3189C108.167 38.9936 107.315 39.544 106.273 39.9702C105.232 40.3963 103.989 40.6094 102.545 40.6094C100.497 40.6094 98.6326 40.1359 96.9517 39.1889C95.2827 38.2301 93.951 36.7682 92.9567 34.8033C91.9742 32.8265 91.483 30.3288 91.483 27.3104C91.483 24.2209 91.986 21.6404 92.9922 19.5689C93.9983 17.4974 95.3359 15.9467 97.005 14.9169C98.6858 13.8871 100.527 13.3722 102.527 13.3722C104.054 13.3722 105.332 13.6326 106.362 14.1534C107.392 14.6624 108.221 15.3016 108.848 16.071C109.487 16.8286 109.978 17.5743 110.322 18.3082H110.606V13.7273H118.116V41.2663C118.116 43.5864 117.548 45.5277 116.412 47.0902C115.276 48.6527 113.701 49.8246 111.689 50.6058C109.688 51.3989 107.386 51.7955 104.782 51.7955ZM104.942 34.9276C106.161 34.9276 107.191 34.6257 108.031 34.022C108.884 33.4065 109.535 32.5305 109.984 31.3942C110.446 30.246 110.677 28.8729 110.677 27.2749C110.677 25.6768 110.452 24.2919 110.002 23.12C109.552 21.9363 108.901 21.0189 108.049 20.3679C107.197 19.7169 106.161 19.3913 104.942 19.3913C103.699 19.3913 102.651 19.7287 101.799 20.4034C100.947 21.0663 100.302 21.9896 99.8636 23.1733C99.4257 24.357 99.2067 25.7242 99.2067 27.2749C99.2067 28.8492 99.4257 30.2105 99.8636 31.3587C100.313 32.495 100.959 33.3769 101.799 34.0043C102.651 34.6198 103.699 34.9276 104.942 34.9276ZM156.362 17.3672H148.585C148.443 16.361 148.153 15.4673 147.715 14.6861C147.277 13.893 146.715 13.2183 146.028 12.6619C145.342 12.1056 144.549 11.6794 143.649 11.3835C142.761 11.0876 141.797 10.9396 140.755 10.9396C138.873 10.9396 137.233 11.4072 135.837 12.3423C134.44 13.2656 133.357 14.6151 132.587 16.3906C131.818 18.1544 131.433 20.2969 131.433 22.8182C131.433 25.4105 131.818 27.5885 132.587 29.3523C133.369 31.116 134.458 32.4477 135.854 33.3473C137.251 34.2469 138.867 34.6967 140.702 34.6967C141.732 34.6967 142.684 34.5606 143.56 34.2884C144.448 34.0161 145.235 33.6196 145.922 33.0987C146.608 32.5661 147.177 31.9209 147.626 31.1634C148.088 30.4058 148.408 29.5417 148.585 28.571L156.362 28.6065C156.161 30.2756 155.658 31.8854 154.853 33.4361C154.06 34.9749 152.989 36.3539 151.639 37.5732C150.302 38.7805 148.704 39.7393 146.845 40.4496C144.999 41.148 142.909 41.4972 140.577 41.4972C137.334 41.4972 134.434 40.7633 131.877 39.2955C129.332 37.8277 127.32 35.7029 125.84 32.9212C124.372 30.1394 123.638 26.7718 123.638 22.8182C123.638 18.8527 124.384 15.4792 125.876 12.6974C127.367 9.91572 129.391 7.79687 131.948 6.34091C134.505 4.87311 137.381 4.1392 140.577 4.1392C142.684 4.1392 144.638 4.43513 146.437 5.02699C148.248 5.61884 149.852 6.48295 151.249 7.61932C152.645 8.74384 153.782 10.1229 154.658 11.7564C155.545 13.3899 156.114 15.2602 156.362 17.3672ZM169.297 25.233V41H161.733V4.63636H169.084V18.5391H169.404C170.019 16.9292 171.014 15.6686 172.387 14.7571C173.76 13.8338 175.482 13.3722 177.554 13.3722C179.448 13.3722 181.099 13.7865 182.507 14.6151C183.928 15.4318 185.029 16.6096 185.81 18.1484C186.603 19.6754 186.994 21.5043 186.982 23.6349V41H179.418V24.9844C179.43 23.3035 179.004 21.9955 178.14 21.0604C177.287 20.1252 176.092 19.6577 174.553 19.6577C173.523 19.6577 172.612 19.8767 171.819 20.3146C171.037 20.7526 170.422 21.3918 169.972 22.2322C169.534 23.0608 169.309 24.0611 169.297 25.233ZM200.711 41.5149C198.971 41.5149 197.421 41.2131 196.059 40.6094C194.698 39.9938 193.621 39.0883 192.828 37.8928C192.047 36.6854 191.656 35.1821 191.656 33.3828C191.656 31.8677 191.934 30.5952 192.491 29.5653C193.047 28.5355 193.805 27.7069 194.763 27.0795C195.722 26.4522 196.811 25.9787 198.03 25.6591C199.261 25.3395 200.552 25.1146 201.901 24.9844C203.487 24.8187 204.766 24.6648 205.736 24.5227C206.707 24.3688 207.411 24.1439 207.849 23.848C208.287 23.5521 208.506 23.1141 208.506 22.5341V22.4276C208.506 21.303 208.151 20.433 207.441 19.8175C206.742 19.2019 205.748 18.8942 204.458 18.8942C203.097 18.8942 202.014 19.196 201.209 19.7997C200.404 20.3916 199.871 21.1373 199.611 22.0369L192.615 21.4688C192.97 19.8116 193.668 18.3793 194.71 17.1719C195.752 15.9527 197.095 15.0175 198.741 14.3665C200.398 13.7036 202.315 13.3722 204.493 13.3722C206.009 13.3722 207.459 13.5497 208.844 13.9048C210.24 14.2599 211.477 14.8104 212.555 15.5561C213.644 16.3018 214.502 17.2607 215.129 18.4325C215.756 19.5926 216.07 20.9834 216.07 22.6051V41H208.897V37.218H208.684C208.246 38.0703 207.66 38.822 206.926 39.473C206.192 40.1122 205.31 40.6153 204.28 40.9822C203.251 41.3374 202.061 41.5149 200.711 41.5149ZM202.878 36.2947C203.99 36.2947 204.973 36.0758 205.825 35.6378C206.677 35.188 207.346 34.5843 207.831 33.8267C208.317 33.0691 208.559 32.2109 208.559 31.2521V28.358C208.323 28.5118 207.997 28.6539 207.583 28.7841C207.18 28.9025 206.725 29.0149 206.216 29.1214C205.707 29.2161 205.198 29.3049 204.689 29.3878C204.18 29.4588 203.718 29.5239 203.304 29.5831C202.416 29.7133 201.641 29.9205 200.978 30.2045C200.315 30.4886 199.8 30.8733 199.433 31.3587C199.066 31.8321 198.883 32.424 198.883 33.1342C198.883 34.1641 199.256 34.9512 200.001 35.4957C200.759 36.0284 201.718 36.2947 202.878 36.2947ZM236.445 13.7273V19.4091H220.021V13.7273H236.445ZM223.749 7.19318H231.313V32.6193C231.313 33.3177 231.42 33.8622 231.633 34.2528C231.846 34.6316 232.142 34.898 232.521 35.0518C232.911 35.2057 233.361 35.2827 233.87 35.2827C234.225 35.2827 234.58 35.2531 234.936 35.1939C235.291 35.1229 235.563 35.0696 235.752 35.0341L236.942 40.6626C236.563 40.781 236.03 40.9171 235.344 41.071C234.657 41.2367 233.823 41.3374 232.84 41.3729C231.017 41.4439 229.419 41.2012 228.046 40.6449C226.685 40.0885 225.626 39.2244 224.868 38.0526C224.11 36.8807 223.738 35.401 223.749 33.6136V7.19318Z"/>
</mask>
<path d="M4.16051 41V4.63636H11.8487V34.6612H27.4382V41H4.16051ZM40.1646 41.5149C38.4245 41.5149 36.8739 41.2131 35.5126 40.6094C34.1513 39.9938 33.0742 39.0883 32.2811 37.8928C31.4998 36.6854 31.1092 35.1821 31.1092 33.3828C31.1092 31.8677 31.3874 30.5952 31.9437 29.5653C32.5001 28.5355 33.2576 27.7069 34.2164 27.0795C35.1752 26.4522 36.2643 25.9787 37.4835 25.6591C38.7145 25.3395 40.0048 25.1146 41.3542 24.9844C42.9404 24.8187 44.2188 24.6648 45.1895 24.5227C46.1601 24.3688 46.8644 24.1439 47.3024 23.848C47.7404 23.5521 47.9593 23.1141 47.9593 22.5341V22.4276C47.9593 21.303 47.6042 20.433 46.894 19.8175C46.1956 19.2019 45.2013 18.8942 43.911 18.8942C42.5498 18.8942 41.4667 19.196 40.6618 19.7997C39.8568 20.3916 39.3242 21.1373 39.0637 22.0369L32.068 21.4688C32.4231 19.8116 33.1215 18.3793 34.1632 17.1719C35.2048 15.9527 36.5484 15.0175 38.1937 14.3665C39.8509 13.7036 41.7685 13.3722 43.9466 13.3722C45.4617 13.3722 46.9118 13.5497 48.2967 13.9048C49.6935 14.2599 50.9305 14.8104 52.0076 15.5561C53.0967 16.3018 53.9548 17.2607 54.5822 18.4325C55.2096 19.5926 55.5233 20.9834 55.5233 22.6051V41H48.35V37.218H48.1369C47.6989 38.0703 47.113 38.822 46.3791 39.473C45.6452 40.1122 44.7633 40.6153 43.7335 40.9822C42.7037 41.3374 41.514 41.5149 40.1646 41.5149ZM42.3308 36.2947C43.4435 36.2947 44.426 36.0758 45.2782 35.6378C46.1305 35.188 46.7993 34.5843 47.2846 33.8267C47.7699 33.0691 48.0126 32.2109 48.0126 31.2521V28.358C47.7759 28.5118 47.4503 28.6539 47.036 28.7841C46.6336 28.9025 46.1779 29.0149 45.6689 29.1214C45.1599 29.2161 44.6509 29.3049 44.1419 29.3878C43.6329 29.4588 43.1712 29.5239 42.7569 29.5831C41.8691 29.7133 41.0938 29.9205 40.4309 30.2045C39.7681 30.4886 39.2531 30.8733 38.8862 31.3587C38.5192 31.8321 38.3358 32.424 38.3358 33.1342C38.3358 34.1641 38.7086 34.9512 39.4544 35.4957C40.2119 36.0284 41.1708 36.2947 42.3308 36.2947ZM68.9554 25.233V41H61.3915V13.7273H68.6003V18.5391H68.9199C69.5236 16.9529 70.5357 15.6982 71.9561 14.7749C73.3766 13.8397 75.0989 13.3722 77.123 13.3722C79.017 13.3722 80.6683 13.7865 82.0769 14.6151C83.4855 15.4437 84.5804 16.6274 85.3617 18.1662C86.1429 19.6932 86.5336 21.5161 86.5336 23.6349V41H78.9696V24.9844C78.9815 23.3153 78.5553 22.0133 77.6912 21.0781C76.8271 20.1312 75.6375 19.6577 74.1223 19.6577C73.1043 19.6577 72.2047 19.8767 71.4235 20.3146C70.6541 20.7526 70.0504 21.3918 69.6124 22.2322C69.1863 23.0608 68.9673 24.0611 68.9554 25.233ZM104.782 51.7955C102.332 51.7955 100.231 51.4581 98.4787 50.7834C96.7386 50.1205 95.3537 49.215 94.3239 48.0668C93.294 46.9186 92.6252 45.6283 92.3175 44.196L99.3132 43.255C99.5263 43.7995 99.8636 44.3085 100.325 44.782C100.787 45.2554 101.397 45.6342 102.154 45.9183C102.924 46.2143 103.859 46.3622 104.96 46.3622C106.605 46.3622 107.96 45.9598 109.026 45.1548C110.103 44.3617 110.641 43.0301 110.641 41.1598V36.1705H110.322C109.99 36.928 109.493 37.6442 108.83 38.3189C108.167 38.9936 107.315 39.544 106.273 39.9702C105.232 40.3963 103.989 40.6094 102.545 40.6094C100.497 40.6094 98.6326 40.1359 96.9517 39.1889C95.2827 38.2301 93.951 36.7682 92.9567 34.8033C91.9742 32.8265 91.483 30.3288 91.483 27.3104C91.483 24.2209 91.986 21.6404 92.9922 19.5689C93.9983 17.4974 95.3359 15.9467 97.005 14.9169C98.6858 13.8871 100.527 13.3722 102.527 13.3722C104.054 13.3722 105.332 13.6326 106.362 14.1534C107.392 14.6624 108.221 15.3016 108.848 16.071C109.487 16.8286 109.978 17.5743 110.322 18.3082H110.606V13.7273H118.116V41.2663C118.116 43.5864 117.548 45.5277 116.412 47.0902C115.276 48.6527 113.701 49.8246 111.689 50.6058C109.688 51.3989 107.386 51.7955 104.782 51.7955ZM104.942 34.9276C106.161 34.9276 107.191 34.6257 108.031 34.022C108.884 33.4065 109.535 32.5305 109.984 31.3942C110.446 30.246 110.677 28.8729 110.677 27.2749C110.677 25.6768 110.452 24.2919 110.002 23.12C109.552 21.9363 108.901 21.0189 108.049 20.3679C107.197 19.7169 106.161 19.3913 104.942 19.3913C103.699 19.3913 102.651 19.7287 101.799 20.4034C100.947 21.0663 100.302 21.9896 99.8636 23.1733C99.4257 24.357 99.2067 25.7242 99.2067 27.2749C99.2067 28.8492 99.4257 30.2105 99.8636 31.3587C100.313 32.495 100.959 33.3769 101.799 34.0043C102.651 34.6198 103.699 34.9276 104.942 34.9276ZM156.362 17.3672H148.585C148.443 16.361 148.153 15.4673 147.715 14.6861C147.277 13.893 146.715 13.2183 146.028 12.6619C145.342 12.1056 144.549 11.6794 143.649 11.3835C142.761 11.0876 141.797 10.9396 140.755 10.9396C138.873 10.9396 137.233 11.4072 135.837 12.3423C134.44 13.2656 133.357 14.6151 132.587 16.3906C131.818 18.1544 131.433 20.2969 131.433 22.8182C131.433 25.4105 131.818 27.5885 132.587 29.3523C133.369 31.116 134.458 32.4477 135.854 33.3473C137.251 34.2469 138.867 34.6967 140.702 34.6967C141.732 34.6967 142.684 34.5606 143.56 34.2884C144.448 34.0161 145.235 33.6196 145.922 33.0987C146.608 32.5661 147.177 31.9209 147.626 31.1634C148.088 30.4058 148.408 29.5417 148.585 28.571L156.362 28.6065C156.161 30.2756 155.658 31.8854 154.853 33.4361C154.06 34.9749 152.989 36.3539 151.639 37.5732C150.302 38.7805 148.704 39.7393 146.845 40.4496C144.999 41.148 142.909 41.4972 140.577 41.4972C137.334 41.4972 134.434 40.7633 131.877 39.2955C129.332 37.8277 127.32 35.7029 125.84 32.9212C124.372 30.1394 123.638 26.7718 123.638 22.8182C123.638 18.8527 124.384 15.4792 125.876 12.6974C127.367 9.91572 129.391 7.79687 131.948 6.34091C134.505 4.87311 137.381 4.1392 140.577 4.1392C142.684 4.1392 144.638 4.43513 146.437 5.02699C148.248 5.61884 149.852 6.48295 151.249 7.61932C152.645 8.74384 153.782 10.1229 154.658 11.7564C155.545 13.3899 156.114 15.2602 156.362 17.3672ZM169.297 25.233V41H161.733V4.63636H169.084V18.5391H169.404C170.019 16.9292 171.014 15.6686 172.387 14.7571C173.76 13.8338 175.482 13.3722 177.554 13.3722C179.448 13.3722 181.099 13.7865 182.507 14.6151C183.928 15.4318 185.029 16.6096 185.81 18.1484C186.603 19.6754 186.994 21.5043 186.982 23.6349V41H179.418V24.9844C179.43 23.3035 179.004 21.9955 178.14 21.0604C177.287 20.1252 176.092 19.6577 174.553 19.6577C173.523 19.6577 172.612 19.8767 171.819 20.3146C171.037 20.7526 170.422 21.3918 169.972 22.2322C169.534 23.0608 169.309 24.0611 169.297 25.233ZM200.711 41.5149C198.971 41.5149 197.421 41.2131 196.059 40.6094C194.698 39.9938 193.621 39.0883 192.828 37.8928C192.047 36.6854 191.656 35.1821 191.656 33.3828C191.656 31.8677 191.934 30.5952 192.491 29.5653C193.047 28.5355 193.805 27.7069 194.763 27.0795C195.722 26.4522 196.811 25.9787 198.03 25.6591C199.261 25.3395 200.552 25.1146 201.901 24.9844C203.487 24.8187 204.766 24.6648 205.736 24.5227C206.707 24.3688 207.411 24.1439 207.849 23.848C208.287 23.5521 208.506 23.1141 208.506 22.5341V22.4276C208.506 21.303 208.151 20.433 207.441 19.8175C206.742 19.2019 205.748 18.8942 204.458 18.8942C203.097 18.8942 202.014 19.196 201.209 19.7997C200.404 20.3916 199.871 21.1373 199.611 22.0369L192.615 21.4688C192.97 19.8116 193.668 18.3793 194.71 17.1719C195.752 15.9527 197.095 15.0175 198.741 14.3665C200.398 13.7036 202.315 13.3722 204.493 13.3722C206.009 13.3722 207.459 13.5497 208.844 13.9048C210.24 14.2599 211.477 14.8104 212.555 15.5561C213.644 16.3018 214.502 17.2607 215.129 18.4325C215.756 19.5926 216.07 20.9834 216.07 22.6051V41H208.897V37.218H208.684C208.246 38.0703 207.66 38.822 206.926 39.473C206.192 40.1122 205.31 40.6153 204.28 40.9822C203.251 41.3374 202.061 41.5149 200.711 41.5149ZM202.878 36.2947C203.99 36.2947 204.973 36.0758 205.825 35.6378C206.677 35.188 207.346 34.5843 207.831 33.8267C208.317 33.0691 208.559 32.2109 208.559 31.2521V28.358C208.323 28.5118 207.997 28.6539 207.583 28.7841C207.18 28.9025 206.725 29.0149 206.216 29.1214C205.707 29.2161 205.198 29.3049 204.689 29.3878C204.18 29.4588 203.718 29.5239 203.304 29.5831C202.416 29.7133 201.641 29.9205 200.978 30.2045C200.315 30.4886 199.8 30.8733 199.433 31.3587C199.066 31.8321 198.883 32.424 198.883 33.1342C198.883 34.1641 199.256 34.9512 200.001 35.4957C200.759 36.0284 201.718 36.2947 202.878 36.2947ZM236.445 13.7273V19.4091H220.021V13.7273H236.445ZM223.749 7.19318H231.313V32.6193C231.313 33.3177 231.42 33.8622 231.633 34.2528C231.846 34.6316 232.142 34.898 232.521 35.0518C232.911 35.2057 233.361 35.2827 233.87 35.2827C234.225 35.2827 234.58 35.2531 234.936 35.1939C235.291 35.1229 235.563 35.0696 235.752 35.0341L236.942 40.6626C236.563 40.781 236.03 40.9171 235.344 41.071C234.657 41.2367 233.823 41.3374 232.84 41.3729C231.017 41.4439 229.419 41.2012 228.046 40.6449C226.685 40.0885 225.626 39.2244 224.868 38.0526C224.11 36.8807 223.738 35.401 223.749 33.6136V7.19318Z" fill="white"/>
<path d="M4.16051 41H0.160511V45H4.16051V41ZM4.16051 4.63636V0.636362H0.160511V4.63636H4.16051ZM11.8487 4.63636H15.8487V0.636362H11.8487V4.63636ZM11.8487 34.6612H7.84872V38.6612H11.8487V34.6612ZM27.4382 34.6612H31.4382V30.6612H27.4382V34.6612ZM27.4382 41V45H31.4382V41H27.4382ZM8.16051 41V4.63636H0.160511V41H8.16051ZM4.16051 8.63636H11.8487V0.636362H4.16051V8.63636ZM7.84872 4.63636V34.6612H15.8487V4.63636H7.84872ZM11.8487 38.6612H27.4382V30.6612H11.8487V38.6612ZM23.4382 34.6612V41H31.4382V34.6612H23.4382ZM27.4382 37H4.16051V45H27.4382V37ZM35.5126 40.6094L33.8646 44.2541L33.8778 44.2601L33.891 44.2659L35.5126 40.6094ZM32.2811 37.8928L28.9228 40.0658L28.9352 40.0849L28.9478 40.1039L32.2811 37.8928ZM31.9437 29.5653L28.4244 27.6641L31.9437 29.5653ZM34.2164 27.0795L32.0263 23.7324L34.2164 27.0795ZM37.4835 25.6591L36.4783 21.7874L36.4692 21.7898L37.4835 25.6591ZM41.3542 24.9844L41.7384 28.9659L41.7541 28.9644L41.7699 28.9627L41.3542 24.9844ZM45.1895 24.5227L45.7687 28.4806L45.7922 28.4771L45.8158 28.4734L45.1895 24.5227ZM47.3024 23.848L45.063 20.5337L45.0629 20.5337L47.3024 23.848ZM46.894 19.8175L44.2492 22.8183L44.2617 22.8293L44.2743 22.8402L46.894 19.8175ZM40.6618 19.7997L43.0313 23.0223L43.0466 23.0111L43.0618 22.9997L40.6618 19.7997ZM39.0637 22.0369L38.7399 26.0238L41.9973 26.2884L42.906 23.1492L39.0637 22.0369ZM32.068 21.4688L28.1568 20.6306L27.2019 25.0867L31.7442 25.4556L32.068 21.4688ZM34.1632 17.1719L37.1918 19.7848L37.1981 19.7775L37.2044 19.7702L34.1632 17.1719ZM38.1937 14.3665L39.6654 18.0859L39.6724 18.0832L39.6793 18.0804L38.1937 14.3665ZM48.2967 13.9048L47.3032 17.7795L47.3111 17.7815L48.2967 13.9048ZM52.0076 15.5561L49.7308 18.8449L49.7392 18.8507L49.7476 18.8565L52.0076 15.5561ZM54.5822 18.4325L51.0558 20.3204L51.0598 20.3279L51.0638 20.3353L54.5822 18.4325ZM55.5233 41V45H59.5233V41H55.5233ZM48.35 41H44.35V45H48.35V41ZM48.35 37.218H52.35V33.218H48.35V37.218ZM48.1369 37.218V33.218H45.6952L44.5792 35.3898L48.1369 37.218ZM46.3791 39.473L49.0062 42.4893L49.0199 42.4774L49.0335 42.4653L46.3791 39.473ZM43.7335 40.9822L45.0374 44.7637L45.0568 44.7571L45.0761 44.7502L43.7335 40.9822ZM45.2782 35.6378L47.1065 39.1955L47.1259 39.1855L47.1453 39.1753L45.2782 35.6378ZM47.2846 33.8267L43.9165 31.669H43.9165L47.2846 33.8267ZM48.0126 28.358H52.0126V20.9872L45.8327 25.0042L48.0126 28.358ZM47.036 28.7841L48.1647 32.6216L48.2001 32.6111L48.2354 32.6001L47.036 28.7841ZM45.6689 29.1214L46.4005 33.054L46.4445 33.0458L46.4883 33.0366L45.6689 29.1214ZM44.1419 29.3878L44.6947 33.3494L44.7397 33.3431L44.7846 33.3358L44.1419 29.3878ZM42.7569 29.5831L42.1912 25.6233L42.1839 25.6244L42.1765 25.6254L42.7569 29.5831ZM40.4309 30.2045L42.0066 33.8811L40.4309 30.2045ZM38.8862 31.3587L42.0478 33.809L42.0624 33.7901L42.0768 33.7711L38.8862 31.3587ZM39.4544 35.4957L37.0956 38.7262L37.1244 38.7473L37.1537 38.7679L39.4544 35.4957ZM40.1646 37.5149C38.8899 37.5149 37.906 37.2951 37.1342 36.9528L33.891 44.2659C35.8417 45.131 37.9591 45.5149 40.1646 45.5149V37.5149ZM37.1607 36.9647C36.455 36.6456 35.974 36.2237 35.6143 35.6816L28.9478 40.1039C30.1744 41.9529 31.8477 43.3421 33.8646 44.2541L37.1607 36.9647ZM35.6394 35.7197C35.3709 35.3049 35.1092 34.6043 35.1092 33.3828H27.1092C27.1092 35.7598 27.6287 38.0659 28.9228 40.0658L35.6394 35.7197ZM35.1092 33.3828C35.1092 32.3416 35.3015 31.7655 35.463 31.4666L28.4244 27.6641C27.4732 29.4249 27.1092 31.3937 27.1092 33.3828H35.1092ZM35.463 31.4666C35.7104 31.0086 36.0164 30.682 36.4066 30.4267L32.0263 23.7324C30.4988 24.7319 29.2897 26.0625 28.4244 27.6641L35.463 31.4666ZM36.4066 30.4267C36.9699 30.0581 37.6546 29.7494 38.4978 29.5284L36.4692 21.7898C34.874 22.208 33.3806 22.8463 32.0263 23.7324L36.4066 30.4267ZM38.4886 29.5307C39.5031 29.2674 40.5849 29.0772 41.7384 28.9659L40.97 21.0029C39.4247 21.152 37.926 21.4116 36.4783 21.7874L38.4886 29.5307ZM41.7699 28.9627C43.3815 28.7943 44.7208 28.6339 45.7687 28.4806L44.6103 20.5649C43.7168 20.6956 42.4993 20.843 40.9386 21.006L41.7699 28.9627ZM45.8158 28.4734C46.951 28.2934 48.363 27.9589 49.5418 27.1624L45.0629 20.5337C45.1678 20.4628 45.2416 20.4276 45.2645 20.4171C45.2884 20.4062 45.2799 20.4119 45.2289 20.4282C45.1206 20.4628 44.9092 20.5172 44.5631 20.5721L45.8158 28.4734ZM49.5418 27.1624C51.2011 26.0412 51.9593 24.2905 51.9593 22.5341H43.9593C43.9593 22.317 44.0024 21.9387 44.2174 21.5087C44.4397 21.0642 44.7588 20.7392 45.063 20.5337L49.5418 27.1624ZM51.9593 22.5341V22.4276H43.9593V22.5341H51.9593ZM51.9593 22.4276C51.9593 20.393 51.2734 18.3197 49.5137 16.7947L44.2743 22.8402C44.2219 22.7948 44.1639 22.7338 44.1095 22.6579C44.0551 22.582 44.0158 22.5075 43.9896 22.4432C43.9368 22.3139 43.9593 22.2839 43.9593 22.4276H51.9593ZM49.5388 16.8166C47.87 15.3458 45.7992 14.8942 43.911 14.8942V22.8942C44.2471 22.8942 44.4065 22.9352 44.4417 22.9461C44.4564 22.9507 44.4387 22.9466 44.3993 22.9251C44.3588 22.903 44.3058 22.8682 44.2492 22.8183L49.5388 16.8166ZM43.911 14.8942C41.9861 14.8942 39.9668 15.3209 38.2618 16.5997L43.0618 22.9997C42.9665 23.0711 43.1135 22.8942 43.911 22.8942V14.8942ZM38.2922 16.5771C36.8279 17.6538 35.7439 19.1202 35.2215 20.9247L42.906 23.1492C42.9084 23.1409 42.9103 23.1354 42.9115 23.1324C42.9127 23.1293 42.9133 23.128 42.9134 23.1279C42.9134 23.1278 42.9132 23.1281 42.9129 23.1286C42.9127 23.1291 42.9127 23.1289 42.9135 23.1279C42.9146 23.1264 42.9212 23.1173 42.9375 23.1009C42.9542 23.0842 42.9837 23.0573 43.0313 23.0223L38.2922 16.5771ZM39.3876 18.0501L32.3918 17.4819L31.7442 25.4556L38.7399 26.0238L39.3876 18.0501ZM35.9792 22.3069C36.2028 21.2634 36.6162 20.452 37.1918 19.7848L31.1345 14.5589C29.6269 16.3065 28.6434 18.3597 28.1568 20.6306L35.9792 22.3069ZM37.2044 19.7702C37.7796 19.0969 38.5629 18.5221 39.6654 18.0859L36.722 10.6471C34.5338 11.5129 32.6301 12.8084 31.122 14.5736L37.2044 19.7702ZM39.6793 18.0804C40.7724 17.6431 42.1685 17.3722 43.9466 17.3722V9.37216C41.3686 9.37216 38.9294 9.76408 36.7082 10.6526L39.6793 18.0804ZM43.9466 17.3722C45.1466 17.3722 46.2616 17.5124 47.3032 17.7795L49.2902 10.0302C47.5619 9.58701 45.7769 9.37216 43.9466 9.37216V17.3722ZM47.3111 17.7815C48.292 18.0309 49.0829 18.3963 49.7308 18.8449L54.2845 12.2673C52.778 11.2244 51.0949 10.489 49.2823 10.0282L47.3111 17.7815ZM49.7476 18.8565C50.3034 19.2371 50.7289 19.7099 51.0558 20.3204L58.1087 16.5446C57.1808 14.8114 55.8899 13.3666 54.2677 12.2558L49.7476 18.8565ZM51.0638 20.3353C51.3104 20.7913 51.5233 21.4971 51.5233 22.6051H59.5233C59.5233 20.4697 59.1088 18.3938 58.1006 16.5297L51.0638 20.3353ZM51.5233 22.6051V41H59.5233V22.6051H51.5233ZM55.5233 37H48.35V45H55.5233V37ZM52.35 41V37.218H44.35V41H52.35ZM48.35 33.218H48.1369V41.218H48.35V33.218ZM44.5792 35.3898C44.3731 35.7909 44.097 36.1504 43.7246 36.4807L49.0335 42.4653C50.129 41.4935 51.0248 40.3498 51.6946 39.0463L44.5792 35.3898ZM43.752 36.4567C43.4391 36.7291 43.0071 36.9947 42.3909 37.2143L45.0761 44.7502C46.5195 44.2359 47.8512 43.4953 49.0062 42.4893L43.752 36.4567ZM42.4295 37.2008C41.9057 37.3814 41.172 37.5149 40.1646 37.5149V45.5149C41.856 45.5149 43.5016 45.2933 45.0374 44.7637L42.4295 37.2008ZM42.3308 40.2947C43.9767 40.2947 45.6039 39.9677 47.1065 39.1955L43.45 32.0801C43.2481 32.1838 42.9102 32.2947 42.3308 32.2947V40.2947ZM47.1453 39.1753C48.5638 38.4267 49.7682 37.3652 50.6528 35.9844L43.9165 31.669C43.8304 31.8034 43.6972 31.9493 43.4112 32.1002L47.1453 39.1753ZM50.6528 35.9844C51.5781 34.5399 52.0126 32.9232 52.0126 31.2521H44.0126C44.0126 31.4987 43.9618 31.5983 43.9165 31.669L50.6528 35.9844ZM52.0126 31.2521V28.358H44.0126V31.2521H52.0126ZM45.8327 25.0042C45.888 24.9682 45.9304 24.9446 45.9554 24.9315C45.9806 24.9182 45.9935 24.9127 45.9911 24.9137C45.989 24.9147 45.9754 24.9205 45.9487 24.9303C45.9221 24.9401 45.8852 24.9529 45.8367 24.9681L48.2354 32.6001C48.8314 32.4127 49.5345 32.1395 50.1926 31.7117L45.8327 25.0042ZM45.9074 24.9466C45.6276 25.0289 45.2778 25.1166 44.8494 25.2063L46.4883 33.0366C47.0779 32.9132 47.6396 32.776 48.1647 32.6216L45.9074 24.9466ZM44.9372 25.1889C44.4577 25.2781 43.9783 25.3617 43.4992 25.4398L44.7846 33.3358C45.3234 33.2481 45.862 33.1541 46.4005 33.054L44.9372 25.1889ZM43.5891 25.4262C43.0767 25.4977 42.6107 25.5634 42.1912 25.6233L43.3226 33.5429C43.7318 33.4844 44.189 33.42 44.6947 33.3494L43.5891 25.4262ZM42.1765 25.6254C41.0258 25.7942 39.9026 26.0791 38.8553 26.528L42.0066 33.8811C42.285 33.7618 42.7125 33.6324 43.3374 33.5408L42.1765 25.6254ZM38.8553 26.528C37.6722 27.035 36.5535 27.8116 35.6955 28.9462L42.0768 33.7711C42.0209 33.8451 41.9687 33.8904 41.9417 33.9106C41.9174 33.9287 41.9309 33.9136 42.0066 33.8811L38.8553 26.528ZM35.7245 28.9084C34.7181 30.207 34.3358 31.7076 34.3358 33.1342H42.3358C42.3358 33.1231 42.3371 33.2031 42.294 33.3421C42.2487 33.4882 42.1682 33.6536 42.0478 33.809L35.7245 28.9084ZM34.3358 33.1342C34.3358 35.2711 35.1884 37.3337 37.0956 38.7262L41.8131 32.2652C41.9456 32.362 42.114 32.539 42.2304 32.7846C42.3396 33.0152 42.3358 33.1639 42.3358 33.1342H34.3358ZM37.1537 38.7679C38.7381 39.8819 40.5567 40.2947 42.3308 40.2947V32.2947C42.0543 32.2947 41.891 32.2628 41.8122 32.2409C41.7402 32.2209 41.7331 32.2082 41.7551 32.2236L37.1537 38.7679ZM68.9554 25.233L64.9556 25.1926L64.9554 25.2128V25.233H68.9554ZM68.9554 41V45H72.9554V41H68.9554ZM61.3915 41H57.3915V45H61.3915V41ZM61.3915 13.7273V9.72727H57.3915V13.7273H61.3915ZM68.6003 13.7273H72.6003V9.72727H68.6003V13.7273ZM68.6003 18.5391H64.6003V22.5391H68.6003V18.5391ZM68.9199 18.5391V22.5391H71.6775L72.6583 19.9619L68.9199 18.5391ZM71.9561 14.7749L74.1361 18.1286L74.1459 18.1223L74.1556 18.1159L71.9561 14.7749ZM82.0769 14.6151L84.105 11.1673L82.0769 14.6151ZM85.3617 18.1662L81.795 19.977L81.8007 19.9881L85.3617 18.1662ZM86.5336 41V45H90.5336V41H86.5336ZM78.9696 41H74.9696V45H78.9696V41ZM78.9696 24.9844L74.9697 24.956L74.9696 24.9702V24.9844H78.9696ZM77.6912 21.0781L74.7365 23.7743L74.7449 23.7836L74.7534 23.7928L77.6912 21.0781ZM71.4235 20.3146L69.4675 16.8255L69.456 16.8319L69.4447 16.8384L71.4235 20.3146ZM69.6124 22.2322L66.0652 20.3837L66.0602 20.3933L66.0552 20.4029L69.6124 22.2322ZM64.9554 25.233V41H72.9554V25.233H64.9554ZM68.9554 37H61.3915V45H68.9554V37ZM65.3915 41V13.7273H57.3915V41H65.3915ZM61.3915 17.7273H68.6003V9.72727H61.3915V17.7273ZM64.6003 13.7273V18.5391H72.6003V13.7273H64.6003ZM68.6003 22.5391H68.9199V14.5391H68.6003V22.5391ZM72.6583 19.9619C72.9609 19.1668 73.428 18.5889 74.1361 18.1286L69.7762 11.4211C67.6433 12.8074 66.0863 14.739 65.1815 17.1162L72.6583 19.9619ZM74.1556 18.1159C74.8074 17.6868 75.7296 17.3722 77.123 17.3722V9.37216C74.4682 9.37216 71.9458 9.99265 69.7567 11.4339L74.1556 18.1159ZM77.123 17.3722C78.4187 17.3722 79.3469 17.6499 80.0488 18.0628L84.105 11.1673C81.9897 9.92303 79.6153 9.37216 77.123 9.37216V17.3722ZM80.0488 18.0628C80.7611 18.4818 81.3394 19.0795 81.795 19.977L88.9284 16.3554C87.8215 14.1752 86.2099 12.4055 84.105 11.1673L80.0488 18.0628ZM81.8007 19.9881C82.2334 20.8338 82.5336 22.0032 82.5336 23.6349H90.5336C90.5336 21.029 90.0525 18.5526 88.9227 16.3443L81.8007 19.9881ZM82.5336 23.6349V41H90.5336V23.6349H82.5336ZM86.5336 37H78.9696V45H86.5336V37ZM82.9696 41V24.9844H74.9696V41H82.9696ZM82.9695 25.0127C82.9863 22.6527 82.3755 20.2535 80.629 18.3635L74.7534 23.7928C74.7661 23.8065 74.8093 23.8535 74.8573 24.0002C74.9103 24.1622 74.9732 24.4626 74.9697 24.956L82.9695 25.0127ZM80.646 18.3819C78.8855 16.4527 76.5387 15.6577 74.1223 15.6577V23.6577C74.4644 23.6577 74.6254 23.7108 74.6717 23.7292C74.7031 23.7417 74.7122 23.7477 74.7365 23.7743L80.646 18.3819ZM74.1223 15.6577C72.5143 15.6577 70.9239 16.009 69.4675 16.8255L73.3795 23.8038C73.4855 23.7443 73.6944 23.6577 74.1223 23.6577V15.6577ZM69.4447 16.8384C67.9592 17.6839 66.8324 18.9114 66.0652 20.3837L73.1596 24.0808C73.2683 23.8722 73.3489 23.8213 73.4023 23.7909L69.4447 16.8384ZM66.0552 20.4029C65.2805 21.9094 64.9722 23.5545 64.9556 25.1926L72.9552 25.2734C72.9624 24.5676 73.092 24.2123 73.1695 24.0616L66.0552 20.4029ZM98.4787 50.7834L99.9163 47.0506L99.9095 47.048L99.9027 47.0454L98.4787 50.7834ZM94.3239 48.0668L91.3461 50.7375L94.3239 48.0668ZM92.3175 44.196L91.7842 40.2317L87.4982 40.8083L88.4067 45.0363L92.3175 44.196ZM99.3132 43.255L103.038 41.7974L101.893 38.8719L98.7799 39.2907L99.3132 43.255ZM100.325 44.782L103.189 41.9896L100.325 44.782ZM102.154 45.9183L103.59 42.1849L103.574 42.1789L103.559 42.173L102.154 45.9183ZM109.026 45.1548L106.654 41.9337L106.634 41.9484L106.614 41.9634L109.026 45.1548ZM110.641 36.1705H114.641V32.1705H110.641V36.1705ZM110.322 36.1705V32.1705H107.706L106.657 34.5672L110.322 36.1705ZM108.83 38.3189L111.684 41.1222L108.83 38.3189ZM96.9517 39.1889L94.9592 42.6573L94.9737 42.6657L94.9883 42.6739L96.9517 39.1889ZM92.9567 34.8033L89.3747 36.5835L89.3811 36.5964L89.3876 36.6093L92.9567 34.8033ZM92.9922 19.5689L89.3942 17.8213V17.8213L92.9922 19.5689ZM97.005 14.9169L94.9153 11.5061L94.9045 11.5128L97.005 14.9169ZM106.362 14.1534L104.557 17.7229L104.573 17.7312L104.59 17.7393L106.362 14.1534ZM108.848 16.071L105.748 18.5988L105.769 18.6248L105.791 18.6505L108.848 16.071ZM110.322 18.3082L106.698 20.003L107.777 22.3082H110.322V18.3082ZM110.606 18.3082V22.3082H114.606V18.3082H110.606ZM110.606 13.7273V9.72727H106.606V13.7273H110.606ZM118.116 13.7273H122.116V9.72727H118.116V13.7273ZM116.412 47.0902L113.177 44.7375V44.7375L116.412 47.0902ZM111.689 50.6058L110.241 46.877L110.228 46.8821L110.215 46.8874L111.689 50.6058ZM108.031 34.022L110.365 37.2708L110.373 37.2647L108.031 34.022ZM109.984 31.3942L106.273 29.902L106.269 29.912L106.265 29.922L109.984 31.3942ZM110.002 23.12L106.263 24.5409L106.268 24.5534L110.002 23.12ZM101.799 20.4034L104.255 23.5608L104.268 23.5503L104.282 23.5396L101.799 20.4034ZM99.8636 23.1733L103.615 24.5613V24.5613L99.8636 23.1733ZM99.8636 31.3587L96.1263 32.7842L96.1352 32.8076L96.1444 32.8309L99.8636 31.3587ZM101.799 34.0043L99.4062 37.2097L99.4315 37.2285L99.457 37.247L101.799 34.0043ZM104.782 47.7955C102.681 47.7955 101.093 47.5039 99.9163 47.0506L97.0411 54.5161C99.368 55.4123 101.982 55.7955 104.782 55.7955V47.7955ZM99.9027 47.0454C98.636 46.5629 97.8264 45.9812 97.3016 45.396L91.3461 50.7375C92.8809 52.4488 94.8413 53.6781 97.0547 54.5213L99.9027 47.0454ZM97.3016 45.396C96.7113 44.7379 96.3818 44.0706 96.2282 43.3557L88.4067 45.0363C88.8687 47.186 89.8767 49.0993 91.3461 50.7375L97.3016 45.396ZM92.8507 48.1603L99.8465 47.2193L98.7799 39.2907L91.7842 40.2317L92.8507 48.1603ZM95.5882 44.7126C96.0201 45.8162 96.675 46.768 97.4613 47.5744L103.189 41.9896C103.119 41.9172 103.08 41.8649 103.06 41.8353C103.041 41.8065 103.037 41.7943 103.038 41.7974L95.5882 44.7126ZM97.4613 47.5744C98.4148 48.5523 99.562 49.2183 100.75 49.6636L103.559 42.173C103.231 42.0502 103.159 41.9586 103.189 41.9896L97.4613 47.5744ZM100.718 49.6517C102.071 50.1721 103.523 50.3622 104.96 50.3622V42.3622C104.195 42.3622 103.776 42.2565 103.59 42.1849L100.718 49.6517ZM104.96 50.3622C107.269 50.3622 109.529 49.788 111.437 48.3463L106.614 41.9634C106.392 42.1315 105.941 42.3622 104.96 42.3622V50.3622ZM111.397 48.3759C113.867 46.5572 114.641 43.7603 114.641 41.1598H106.641C106.641 41.7286 106.557 41.9923 106.529 42.0615C106.518 42.0903 106.52 42.0754 106.549 42.0378C106.578 41.9987 106.616 41.9614 106.654 41.9337L111.397 48.3759ZM114.641 41.1598V36.1705H106.641V41.1598H114.641ZM110.641 32.1705H110.322V40.1705H110.641V32.1705ZM106.657 34.5672C106.547 34.8194 106.347 35.1388 105.977 35.5156L111.684 41.1222C112.639 40.1496 113.434 39.0367 113.986 37.7737L106.657 34.5672ZM105.977 35.5156C105.76 35.7366 105.392 36.0091 104.759 36.268L107.788 43.6724C109.238 43.079 110.575 42.2506 111.684 41.1222L105.977 35.5156ZM104.759 36.268C104.313 36.4504 103.61 36.6094 102.545 36.6094V44.6094C104.368 44.6094 106.151 44.3422 107.788 43.6724L104.759 36.268ZM102.545 36.6094C101.141 36.6094 99.9597 36.2924 98.9151 35.7039L94.9883 42.6739C97.3055 43.9794 99.8528 44.6094 102.545 44.6094V36.6094ZM98.9442 35.7205C98.0452 35.2041 97.22 34.3693 96.5257 32.9972L89.3876 36.6093C90.6819 39.1671 92.5201 41.2562 94.9592 42.6573L98.9442 35.7205ZM96.5387 33.023C95.913 31.7642 95.483 29.9261 95.483 27.3104H87.483C87.483 30.7316 88.0354 33.8888 89.3747 36.5835L96.5387 33.023ZM95.483 27.3104C95.483 24.6294 95.9229 22.6904 96.5902 21.3165L89.3942 17.8213C88.0491 20.5904 87.483 23.8123 87.483 27.3104H95.483ZM96.5902 21.3165C97.3233 19.8071 98.1884 18.8869 99.1054 18.321L94.9045 11.5128C92.4835 13.0066 90.6733 15.1877 89.3942 17.8213L96.5902 21.3165ZM99.0947 18.3277C100.137 17.6891 101.253 17.3722 102.527 17.3722V9.37216C99.8005 9.37216 97.2348 10.085 94.9153 11.5062L99.0947 18.3277ZM102.527 17.3722C103.621 17.3722 104.238 17.5614 104.557 17.7229L108.167 10.5839C106.427 9.70371 104.487 9.37216 102.527 9.37216V17.3722ZM104.59 17.7393C105.187 18.0343 105.535 18.3375 105.748 18.5988L111.948 13.5433C110.906 12.2657 109.597 11.2905 108.135 10.5675L104.59 17.7393ZM105.791 18.6505C106.252 19.1968 106.533 19.6492 106.698 20.003L113.945 16.6135C113.424 15.4995 112.723 14.4604 111.905 13.4915L105.791 18.6505ZM110.322 22.3082H110.606V14.3082H110.322V22.3082ZM114.606 18.3082V13.7273H106.606V18.3082H114.606ZM110.606 17.7273H118.116V9.72727H110.606V17.7273ZM114.116 13.7273V41.2663H122.116V13.7273H114.116ZM114.116 41.2663C114.116 42.915 113.723 43.9871 113.177 44.7375L119.647 49.4429C121.374 47.0683 122.116 44.2578 122.116 41.2663H114.116ZM113.177 44.7375C112.544 45.6082 111.625 46.3398 110.241 46.877L113.137 54.3347C115.778 53.3093 118.007 51.6972 119.647 49.4429L113.177 44.7375ZM110.215 46.8874C108.771 47.4598 106.985 47.7955 104.782 47.7955V55.7955C107.788 55.7955 110.606 55.338 113.163 54.3243L110.215 46.8874ZM104.942 38.9276C106.845 38.9276 108.729 38.4455 110.365 37.2708L105.698 30.7733C105.652 30.8059 105.477 30.9276 104.942 30.9276V38.9276ZM110.373 37.2647C111.939 36.1338 113.02 34.5946 113.704 32.8664L106.265 29.922C106.05 30.4665 105.828 30.6792 105.689 30.7793L110.373 37.2647ZM113.696 32.8863C114.395 31.1477 114.677 29.2421 114.677 27.2749H106.677C106.677 28.5037 106.497 29.3443 106.273 29.902L113.696 32.8863ZM114.677 27.2749C114.677 25.3148 114.403 23.422 113.736 21.6866L106.268 24.5534C106.501 25.1619 106.677 26.0389 106.677 27.2749H114.677ZM113.741 21.6992C113.075 19.9463 112.021 18.3688 110.477 17.1892L105.621 23.5466C105.781 23.669 106.029 23.9263 106.263 24.5409L113.741 21.6992ZM110.477 17.1892C108.834 15.9338 106.913 15.3913 104.942 15.3913V23.3913C105.409 23.3913 105.56 23.4999 105.621 23.5466L110.477 17.1892ZM104.942 15.3913C102.933 15.3913 100.975 15.9542 99.3162 17.2672L104.282 23.5396C104.328 23.5031 104.464 23.3913 104.942 23.3913V15.3913ZM99.3432 17.246C97.8093 18.4391 96.7644 20.0225 96.1122 21.7853L103.615 24.5613C103.839 23.9566 104.084 23.6935 104.255 23.5608L99.3432 17.246ZM96.1122 21.7853C95.4771 23.5018 95.2067 25.3551 95.2067 27.2749H103.207C103.207 26.0933 103.374 25.2122 103.615 24.5613L96.1122 21.7853ZM95.2067 27.2749C95.2067 29.2057 95.4735 31.0729 96.1263 32.7842L103.601 29.9331C103.378 29.348 103.207 28.4927 103.207 27.2749H95.2067ZM96.1444 32.8309C96.8213 34.5409 97.879 36.0697 99.4062 37.2097L104.192 30.7989C104.038 30.6841 103.806 30.4491 103.583 29.8865L96.1444 32.8309ZM99.457 37.247C101.109 38.4397 103.016 38.9276 104.942 38.9276V30.9276C104.382 30.9276 104.194 30.7999 104.141 30.7615L99.457 37.247ZM156.362 17.3672V21.3672H160.862L160.335 16.8985L156.362 17.3672ZM148.585 17.3672L144.624 17.9263L145.11 21.3672H148.585V17.3672ZM147.715 14.6861L144.214 16.6198L144.22 16.631L144.226 16.6421L147.715 14.6861ZM146.028 12.6619L143.51 15.7697L143.51 15.7697L146.028 12.6619ZM143.649 11.3835L142.384 15.1783L142.392 15.1808L142.399 15.1832L143.649 11.3835ZM135.837 12.3423L138.042 15.6792L138.052 15.6727L138.062 15.6662L135.837 12.3423ZM132.587 16.3906L136.254 17.99L136.258 17.9811L132.587 16.3906ZM132.587 29.3523L128.921 30.9517L128.926 30.962L128.93 30.9723L132.587 29.3523ZM135.854 33.3473L133.688 36.7102L135.854 33.3473ZM143.56 34.2884L142.388 30.4641L142.38 30.4664L142.373 30.4686L143.56 34.2884ZM145.922 33.0987L148.339 36.2855L148.357 36.2724L148.374 36.2591L145.922 33.0987ZM147.626 31.1634L144.211 29.0819L144.199 29.1015L144.187 29.1212L147.626 31.1634ZM148.585 28.571L148.603 24.5711L145.253 24.5558L144.651 27.8513L148.585 28.571ZM156.362 28.6065L160.333 29.0853L160.871 24.6271L156.38 24.6066L156.362 28.6065ZM154.853 33.4361L151.303 31.5932L151.297 31.6036L154.853 33.4361ZM151.639 37.5732L154.319 40.5424L154.321 40.5411L151.639 37.5732ZM146.845 40.4496L148.26 44.191L148.273 44.186L146.845 40.4496ZM131.877 39.2955L129.879 42.7605L129.886 42.7645L131.877 39.2955ZM125.84 32.9212L122.302 34.7879L122.309 34.7996L125.84 32.9212ZM125.876 12.6974L129.401 14.5876L125.876 12.6974ZM131.948 6.34091L133.928 9.81687L133.94 9.80992L131.948 6.34091ZM146.437 5.02699L145.187 8.8267L145.194 8.82911L146.437 5.02699ZM151.249 7.61932L148.724 10.7222L148.732 10.7286L148.74 10.735L151.249 7.61932ZM154.658 11.7564L151.133 13.6467L151.138 13.6566L151.143 13.6664L154.658 11.7564ZM156.362 13.3672H148.585V21.3672H156.362V13.3672ZM152.546 16.808C152.344 15.3765 151.915 13.9979 151.204 12.7301L144.226 16.6421C144.391 16.9368 144.543 17.3455 144.624 17.9263L152.546 16.808ZM151.217 12.7524C150.536 11.5199 149.644 10.4432 148.547 9.5542L143.51 15.7697C143.786 15.9934 144.018 16.2661 144.214 16.6198L151.217 12.7524ZM148.547 9.5542C147.457 8.67079 146.227 8.02053 144.899 7.58382L142.399 15.1832C142.871 15.3384 143.227 15.5404 143.51 15.7697L148.547 9.5542ZM144.914 7.58879C143.575 7.14246 142.178 6.93963 140.755 6.93963V14.9396C141.415 14.9396 141.948 15.0327 142.384 15.1783L144.914 7.58879ZM140.755 6.93963C138.179 6.93963 135.744 7.59083 133.611 9.01847L138.062 15.6662C138.723 15.2236 139.567 14.9396 140.755 14.9396V6.93963ZM133.631 9.00545C131.491 10.42 129.946 12.4263 128.917 14.8002L136.258 17.9811C136.768 16.8038 137.389 16.1112 138.042 15.6792L133.631 9.00545ZM128.921 14.7912C127.875 17.1899 127.433 19.9093 127.433 22.8182H135.433C135.433 20.6844 135.761 19.1188 136.254 17.99L128.921 14.7912ZM127.433 22.8182C127.433 25.7805 127.869 28.5408 128.921 30.9517L136.254 27.7529C135.767 26.6363 135.433 25.0406 135.433 22.8182H127.433ZM128.93 30.9723C129.975 33.3323 131.535 35.3229 133.688 36.7102L138.02 29.9844C137.381 29.5724 136.762 28.8997 136.245 27.7323L128.93 30.9723ZM133.688 36.7102C135.798 38.0685 138.182 38.6967 140.702 38.6967V30.6967C139.552 30.6967 138.705 30.4253 138.02 29.9844L133.688 36.7102ZM140.702 38.6967C142.085 38.6967 143.443 38.5135 144.748 38.1081L142.373 30.4686C141.926 30.6077 141.378 30.6967 140.702 30.6967V38.6967ZM144.733 38.1126C146.035 37.7133 147.251 37.1115 148.339 36.2855L143.504 29.912C143.22 30.1276 142.861 30.3189 142.388 30.4641L144.733 38.1126ZM148.374 36.2591C149.462 35.4145 150.364 34.3883 151.066 33.2055L144.187 29.1212C143.99 29.4536 143.754 29.7176 143.47 29.9384L148.374 36.2591ZM151.042 33.2448C151.786 32.0246 152.264 30.6894 152.52 29.2908L144.651 27.8513C144.551 28.394 144.39 28.787 144.211 29.0819L151.042 33.2448ZM148.567 32.571L156.344 32.6065L156.38 24.6066L148.603 24.5711L148.567 32.571ZM152.391 28.1277C152.249 29.3019 151.896 30.4514 151.303 31.5932L158.403 35.2789C159.42 33.3195 160.073 31.2492 160.333 29.0853L152.391 28.1277ZM151.297 31.6036C150.736 32.6931 149.968 33.6922 148.958 34.6052L154.321 40.5411C156.009 39.0156 157.384 37.2568 158.409 35.2686L151.297 31.6036ZM148.959 34.6039C148.024 35.4477 146.862 36.1608 145.417 36.7131L148.273 44.186C150.545 43.3179 152.579 42.1134 154.319 40.5424L148.959 34.6039ZM145.43 36.7082C144.11 37.2077 142.512 37.4972 140.577 37.4972V45.4972C143.307 45.4972 145.888 45.0882 148.26 44.1909L145.43 36.7082ZM140.577 37.4972C137.961 37.4972 135.76 36.9122 133.869 35.8264L129.886 42.7645C133.108 44.6143 136.707 45.4972 140.577 45.4972V37.4972ZM133.876 35.8304C132.028 34.7646 130.526 33.2123 129.372 31.0427L122.309 34.7996C124.114 38.1935 126.637 40.8907 129.879 42.7605L133.876 35.8304ZM129.378 31.0545C128.282 28.9773 127.638 26.2849 127.638 22.8182H119.638C119.638 27.2586 120.463 31.3016 122.302 34.7879L129.378 31.0545ZM127.638 22.8182C127.638 19.3465 128.291 16.6576 129.401 14.5876L122.35 10.8073C120.477 14.3007 119.638 18.359 119.638 22.8182H127.638ZM129.401 14.5876C130.564 12.4191 132.073 10.873 133.928 9.81685L129.969 2.86497C126.71 4.72079 124.171 7.41235 122.35 10.8073L129.401 14.5876ZM133.94 9.80992C135.84 8.71899 138.02 8.1392 140.577 8.1392V0.139203C136.743 0.139203 133.17 1.02722 129.957 2.8719L133.94 9.80992ZM140.577 8.1392C142.307 8.1392 143.834 8.38153 145.187 8.82669L147.687 1.22728C145.441 0.488733 143.062 0.139203 140.577 0.139203V8.1392ZM145.194 8.82911C146.566 9.27746 147.73 9.91326 148.724 10.7222L153.773 4.51647C151.974 3.05264 149.93 1.96023 147.679 1.22486L145.194 8.82911ZM148.74 10.735C149.705 11.512 150.501 12.4694 151.133 13.6467L158.183 9.86609C157.062 7.77634 155.586 5.9757 153.757 4.50358L148.74 10.735ZM151.143 13.6664C151.756 14.7944 152.192 16.1633 152.39 17.8358L160.335 16.8985C160.035 14.357 159.335 11.9854 158.172 9.84634L151.143 13.6664ZM169.297 25.233L165.297 25.1926L165.297 25.2128V25.233H169.297ZM169.297 41V45H173.297V41H169.297ZM161.733 41H157.733V45H161.733V41ZM161.733 4.63636V0.636362H157.733V4.63636H161.733ZM169.084 4.63636H173.084V0.636362H169.084V4.63636ZM169.084 18.5391H165.084V22.5391H169.084V18.5391ZM169.404 18.5391V22.5391H172.157L173.14 19.9676L169.404 18.5391ZM172.387 14.7571L174.599 18.0897L174.609 18.0831L174.619 18.0765L172.387 14.7571ZM182.507 14.6151L180.479 18.0628L180.496 18.0728L180.514 18.0827L182.507 14.6151ZM185.81 18.1484L182.243 19.9592L182.252 19.9757L182.26 19.9921L185.81 18.1484ZM186.982 23.6349L182.982 23.6127L182.982 23.6238V23.6349H186.982ZM186.982 41V45H190.982V41H186.982ZM179.418 41H175.418V45H179.418V41ZM179.418 24.9844L175.418 24.9562L175.418 24.9703V24.9844H179.418ZM178.14 21.0604L175.183 23.7548L175.192 23.7649L175.202 23.775L178.14 21.0604ZM171.819 20.3146L169.885 16.8131L169.874 16.8193L169.863 16.8255L171.819 20.3146ZM169.972 22.2322L166.445 20.3447L166.44 20.3539L166.436 20.363L169.972 22.2322ZM165.297 25.233V41H173.297V25.233H165.297ZM169.297 37H161.733V45H169.297V37ZM165.733 41V4.63636H157.733V41H165.733ZM161.733 8.63636H169.084V0.636362H161.733V8.63636ZM165.084 4.63636V18.5391H173.084V4.63636H165.084ZM169.084 22.5391H169.404V14.5391H169.084V22.5391ZM173.14 19.9676C173.473 19.0977 173.953 18.5187 174.599 18.0897L170.175 11.4245C168.075 12.8184 166.566 14.7607 165.668 17.1105L173.14 19.9676ZM174.619 18.0765C175.183 17.697 176.077 17.3722 177.554 17.3722V9.37216C174.888 9.37216 172.337 9.97062 170.155 11.4377L174.619 18.0765ZM177.554 17.3722C178.849 17.3722 179.777 17.6499 180.479 18.0628L184.536 11.1673C182.42 9.92303 180.046 9.37216 177.554 9.37216V17.3722ZM180.514 18.0827C181.223 18.4906 181.794 19.075 182.243 19.9592L189.377 16.3377C188.263 14.1443 186.633 12.373 184.501 11.1474L180.514 18.0827ZM182.26 19.9921C182.691 20.8215 182.991 21.9791 182.982 23.6127L190.982 23.6572C190.996 21.0294 190.515 18.5294 189.36 16.3048L182.26 19.9921ZM182.982 23.6349V41H190.982V23.6349H182.982ZM186.982 37H179.418V45H186.982V37ZM183.418 41V24.9844H175.418V41H183.418ZM183.418 25.0125C183.435 22.6496 182.828 20.2407 181.077 18.3457L175.202 23.775C175.212 23.7856 175.255 23.8315 175.304 23.9818C175.358 24.1476 175.422 24.454 175.418 24.9562L183.418 25.0125ZM181.096 18.366C179.325 16.4227 176.954 15.6577 174.553 15.6577V23.6577C174.92 23.6577 175.096 23.7135 175.147 23.7336C175.181 23.7469 175.177 23.7483 175.183 23.7548L181.096 18.366ZM174.553 15.6577C172.94 15.6577 171.347 16.0057 169.885 16.8131L173.752 23.8162C173.876 23.7477 174.106 23.6577 174.553 23.6577V15.6577ZM169.863 16.8255C168.372 17.661 167.231 18.8768 166.445 20.3447L173.499 24.1198C173.613 23.9068 173.702 23.8443 173.775 23.8038L169.863 16.8255ZM166.436 20.363C165.634 21.8792 165.314 23.5392 165.297 25.1926L173.297 25.2734C173.304 24.5829 173.434 24.2424 173.508 24.1015L166.436 20.363ZM196.059 40.6094L194.411 44.2541L194.425 44.2601L194.438 44.2659L196.059 40.6094ZM192.828 37.8928L189.47 40.0658L189.482 40.0849L189.495 40.1039L192.828 37.8928ZM192.491 29.5653L188.971 27.6641L192.491 29.5653ZM194.763 27.0795L192.573 23.7324L194.763 27.0795ZM198.03 25.6591L197.025 21.7874L197.016 21.7898L198.03 25.6591ZM201.901 24.9844L202.285 28.9659L202.301 28.9644L202.317 28.9627L201.901 24.9844ZM205.736 24.5227L206.316 28.4806L206.339 28.4771L206.363 28.4734L205.736 24.5227ZM207.849 23.848L205.61 20.5337L205.61 20.5337L207.849 23.848ZM207.441 19.8175L204.796 22.8183L204.809 22.8293L204.821 22.8402L207.441 19.8175ZM201.209 19.7997L203.578 23.0223L203.593 23.0111L203.609 22.9997L201.209 19.7997ZM199.611 22.0369L199.287 26.0238L202.544 26.2884L203.453 23.1492L199.611 22.0369ZM192.615 21.4688L188.704 20.6306L187.749 25.0867L192.291 25.4556L192.615 21.4688ZM194.71 17.1719L197.739 19.7848L197.745 19.7775L197.751 19.7702L194.71 17.1719ZM198.741 14.3665L200.212 18.0859L200.219 18.0832L200.226 18.0804L198.741 14.3665ZM208.844 13.9048L207.85 17.7795L207.858 17.7815L208.844 13.9048ZM212.555 15.5561L210.278 18.8449L210.286 18.8507L210.294 18.8565L212.555 15.5561ZM215.129 18.4325L211.603 20.3204L211.607 20.3279L211.611 20.3353L215.129 18.4325ZM216.07 41V45H220.07V41H216.07ZM208.897 41H204.897V45H208.897V41ZM208.897 37.218H212.897V33.218H208.897V37.218ZM208.684 37.218V33.218H206.242L205.126 35.3898L208.684 37.218ZM206.926 39.473L209.553 42.4893L209.567 42.4774L209.58 42.4653L206.926 39.473ZM204.28 40.9822L205.584 44.7637L205.604 44.7571L205.623 44.7502L204.28 40.9822ZM205.825 35.6378L207.653 39.1955L207.673 39.1855L207.692 39.1753L205.825 35.6378ZM207.831 33.8267L204.463 31.669L207.831 33.8267ZM208.559 28.358H212.559V20.9872L206.38 25.0042L208.559 28.358ZM207.583 28.7841L208.712 32.6216L208.747 32.6111L208.782 32.6001L207.583 28.7841ZM206.216 29.1214L206.947 33.054L206.991 33.0458L207.035 33.0366L206.216 29.1214ZM204.689 29.3878L205.242 33.3494L205.287 33.3431L205.331 33.3358L204.689 29.3878ZM203.304 29.5831L202.738 25.6233L202.731 25.6244L202.723 25.6254L203.304 29.5831ZM200.978 30.2045L202.553 33.8811L200.978 30.2045ZM199.433 31.3587L202.595 33.809L202.609 33.7901L202.624 33.7711L199.433 31.3587ZM200.001 35.4957L197.642 38.7262L197.671 38.7473L197.701 38.7679L200.001 35.4957ZM200.711 37.5149C199.437 37.5149 198.453 37.2951 197.681 36.9528L194.438 44.2659C196.389 45.131 198.506 45.5149 200.711 45.5149V37.5149ZM197.708 36.9647C197.002 36.6456 196.521 36.2237 196.161 35.6816L189.495 40.1039C190.721 41.9529 192.395 43.3421 194.411 44.2541L197.708 36.9647ZM196.186 35.7197C195.918 35.3049 195.656 34.6043 195.656 33.3828H187.656C187.656 35.7598 188.176 38.0659 189.47 40.0658L196.186 35.7197ZM195.656 33.3828C195.656 32.3416 195.848 31.7655 196.01 31.4666L188.971 27.6641C188.02 29.4249 187.656 31.3937 187.656 33.3828H195.656ZM196.01 31.4666C196.257 31.0086 196.563 30.682 196.953 30.4267L192.573 23.7324C191.046 24.7319 189.837 26.0625 188.971 27.6641L196.01 31.4666ZM196.953 30.4267C197.517 30.0581 198.201 29.7494 199.045 29.5284L197.016 21.7898C195.421 22.208 193.927 22.8463 192.573 23.7324L196.953 30.4267ZM199.036 29.5307C200.05 29.2674 201.132 29.0772 202.285 28.9659L201.517 21.0029C199.972 21.152 198.473 21.4116 197.025 21.7874L199.036 29.5307ZM202.317 28.9627C203.928 28.7943 205.268 28.6339 206.316 28.4806L205.157 20.5649C204.264 20.6956 203.046 20.843 201.485 21.006L202.317 28.9627ZM206.363 28.4734C207.498 28.2934 208.91 27.9589 210.089 27.1624L205.61 20.5337C205.715 20.4628 205.788 20.4276 205.811 20.4171C205.835 20.4062 205.827 20.4119 205.776 20.4282C205.668 20.4628 205.456 20.5172 205.11 20.5721L206.363 28.4734ZM210.089 27.1624C211.748 26.0412 212.506 24.2905 212.506 22.5341H204.506C204.506 22.317 204.549 21.9387 204.764 21.5087C204.987 21.0642 205.306 20.7392 205.61 20.5337L210.089 27.1624ZM212.506 22.5341V22.4276H204.506V22.5341H212.506ZM212.506 22.4276C212.506 20.393 211.82 18.3197 210.061 16.7947L204.821 22.8402C204.769 22.7948 204.711 22.7338 204.656 22.6579C204.602 22.582 204.563 22.5075 204.536 22.4432C204.484 22.3139 204.506 22.2839 204.506 22.4276H212.506ZM210.086 16.8166C208.417 15.3458 206.346 14.8942 204.458 14.8942V22.8942C204.794 22.8942 204.953 22.9352 204.989 22.9461C205.003 22.9507 204.986 22.9466 204.946 22.9251C204.906 22.903 204.853 22.8682 204.796 22.8183L210.086 16.8166ZM204.458 14.8942C202.533 14.8942 200.514 15.3209 198.809 16.5997L203.609 22.9997C203.513 23.0711 203.66 22.8942 204.458 22.8942V14.8942ZM198.839 16.5771C197.375 17.6538 196.291 19.1202 195.768 20.9247L203.453 23.1492C203.455 23.1409 203.457 23.1354 203.458 23.1324C203.46 23.1293 203.46 23.128 203.46 23.1279C203.46 23.1278 203.46 23.1281 203.46 23.1286C203.46 23.1291 203.46 23.1289 203.46 23.1279C203.461 23.1264 203.468 23.1173 203.484 23.1009C203.501 23.0842 203.531 23.0573 203.578 23.0223L198.839 16.5771ZM199.934 18.0501L192.939 17.4819L192.291 25.4556L199.287 26.0238L199.934 18.0501ZM196.526 22.3069C196.75 21.2634 197.163 20.452 197.739 19.7848L191.681 14.5589C190.174 16.3065 189.19 18.3597 188.704 20.6306L196.526 22.3069ZM197.751 19.7702C198.326 19.0969 199.11 18.5221 200.212 18.0859L197.269 10.6471C195.081 11.5129 193.177 12.8084 191.669 14.5736L197.751 19.7702ZM200.226 18.0804C201.319 17.6431 202.715 17.3722 204.493 17.3722V9.37216C201.915 9.37216 199.476 9.76408 197.255 10.6526L200.226 18.0804ZM204.493 17.3722C205.693 17.3722 206.809 17.5124 207.85 17.7795L209.837 10.0302C208.109 9.58701 206.324 9.37216 204.493 9.37216V17.3722ZM207.858 17.7815C208.839 18.0309 209.63 18.3963 210.278 18.8449L214.831 12.2673C213.325 11.2244 211.642 10.489 209.829 10.0282L207.858 17.7815ZM210.294 18.8565C210.85 19.2371 211.276 19.7099 211.603 20.3204L218.656 16.5446C217.728 14.8114 216.437 13.3666 214.815 12.2558L210.294 18.8565ZM211.611 20.3353C211.857 20.7913 212.07 21.4971 212.07 22.6051H220.07C220.07 20.4697 219.656 18.3938 218.648 16.5297L211.611 20.3353ZM212.07 22.6051V41H220.07V22.6051H212.07ZM216.07 37H208.897V45H216.07V37ZM212.897 41V37.218H204.897V41H212.897ZM208.897 33.218H208.684V41.218H208.897V33.218ZM205.126 35.3898C204.92 35.7909 204.644 36.1504 204.271 36.4807L209.58 42.4653C210.676 41.4935 211.572 40.3498 212.242 39.0463L205.126 35.3898ZM204.299 36.4567C203.986 36.7291 203.554 36.9947 202.938 37.2143L205.623 44.7502C207.066 44.2359 208.398 43.4953 209.553 42.4893L204.299 36.4567ZM202.976 37.2008C202.453 37.3814 201.719 37.5149 200.711 37.5149V45.5149C202.403 45.5149 204.048 45.2933 205.584 44.7637L202.976 37.2008ZM202.878 40.2947C204.524 40.2947 206.151 39.9677 207.653 39.1955L203.997 32.0801C203.795 32.1838 203.457 32.2947 202.878 32.2947V40.2947ZM207.692 39.1753C209.111 38.4267 210.315 37.3652 211.2 35.9844L204.463 31.669C204.377 31.8034 204.244 31.9493 203.958 32.1002L207.692 39.1753ZM211.2 35.9844C212.125 34.5399 212.559 32.9232 212.559 31.2521H204.559C204.559 31.4987 204.509 31.5983 204.463 31.669L211.2 35.9844ZM212.559 31.2521V28.358H204.559V31.2521H212.559ZM206.38 25.0042C206.435 24.9682 206.477 24.9446 206.502 24.9315C206.528 24.9182 206.54 24.9127 206.538 24.9137C206.536 24.9147 206.522 24.9205 206.496 24.9303C206.469 24.9401 206.432 24.9529 206.384 24.9681L208.782 32.6001C209.378 32.4127 210.081 32.1395 210.739 31.7117L206.38 25.0042ZM206.454 24.9466C206.174 25.0289 205.825 25.1166 205.396 25.2063L207.035 33.0366C207.625 32.9132 208.186 32.776 208.712 32.6216L206.454 24.9466ZM205.484 25.1889C205.005 25.2781 204.525 25.3617 204.046 25.4398L205.331 33.3358C205.87 33.2481 206.409 33.1541 206.947 33.054L205.484 25.1889ZM204.136 25.4262C203.624 25.4977 203.158 25.5634 202.738 25.6233L203.869 33.5429C204.279 33.4844 204.736 33.42 205.242 33.3494L204.136 25.4262ZM202.723 25.6254C201.573 25.7942 200.449 26.0791 199.402 26.528L202.553 33.8811C202.832 33.7618 203.259 33.6324 203.884 33.5408L202.723 25.6254ZM199.402 26.528C198.219 27.035 197.1 27.8116 196.242 28.9462L202.624 33.7711C202.568 33.8451 202.516 33.8904 202.489 33.9106C202.464 33.9287 202.478 33.9136 202.553 33.8811L199.402 26.528ZM196.271 28.9084C195.265 30.207 194.883 31.7076 194.883 33.1342H202.883C202.883 33.1231 202.884 33.2031 202.841 33.3421C202.796 33.4882 202.715 33.6536 202.595 33.809L196.271 28.9084ZM194.883 33.1342C194.883 35.2711 195.735 37.3337 197.642 38.7262L202.36 32.2652C202.492 32.362 202.661 32.539 202.777 32.7846C202.886 33.0152 202.883 33.1639 202.883 33.1342H194.883ZM197.701 38.7679C199.285 39.8819 201.104 40.2947 202.878 40.2947V32.2947C202.601 32.2947 202.438 32.2628 202.359 32.2409C202.287 32.2209 202.28 32.2082 202.302 32.2236L197.701 38.7679ZM236.445 13.7273H240.445V9.72727H236.445V13.7273ZM236.445 19.4091V23.4091H240.445V19.4091H236.445ZM220.021 19.4091H216.021V23.4091H220.021V19.4091ZM220.021 13.7273V9.72727H216.021V13.7273H220.021ZM223.749 7.19318V3.19318H219.749V7.19318H223.749ZM231.313 7.19318H235.313V3.19318H231.313V7.19318ZM231.633 34.2528L228.121 36.1683L228.134 36.1911L228.147 36.2139L231.633 34.2528ZM232.521 35.0518L231.015 38.7577L231.035 38.7657L231.055 38.7735L232.521 35.0518ZM234.936 35.1939L235.593 39.1395L235.657 39.1289L235.72 39.1162L234.936 35.1939ZM235.752 35.0341L239.666 34.2069L238.857 30.3822L235.015 31.1026L235.752 35.0341ZM236.942 40.6626L238.135 44.4806L241.608 43.3953L240.855 39.8355L236.942 40.6626ZM235.344 41.071L234.469 37.1679L234.437 37.175L234.405 37.1827L235.344 41.071ZM232.84 41.3729L232.696 37.3755L232.685 37.3759L232.84 41.3729ZM228.046 40.6449L226.533 44.3476L226.544 44.3521L228.046 40.6449ZM224.868 38.0526L228.227 35.881L224.868 38.0526ZM223.749 33.6136L227.749 33.6401L227.749 33.6269V33.6136H223.749ZM232.445 13.7273V19.4091H240.445V13.7273H232.445ZM236.445 15.4091H220.021V23.4091H236.445V15.4091ZM224.021 19.4091V13.7273H216.021V19.4091H224.021ZM220.021 17.7273H236.445V9.72727H220.021V17.7273ZM223.749 11.1932H231.313V3.19318H223.749V11.1932ZM227.313 7.19318V32.6193H235.313V7.19318H227.313ZM227.313 32.6193C227.313 33.642 227.456 34.9476 228.121 36.1683L235.145 32.3374C235.275 32.5771 235.312 32.749 235.319 32.7834C235.326 32.8192 235.313 32.7736 235.313 32.6193H227.313ZM228.147 36.2139C228.774 37.3283 229.743 38.2408 231.015 38.7577L234.026 31.346C234.255 31.4388 234.485 31.5781 234.691 31.7635C234.894 31.9468 235.032 32.1366 235.119 32.2918L228.147 36.2139ZM231.055 38.7735C232 39.1458 232.963 39.2827 233.87 39.2827V31.2827C233.759 31.2827 233.823 31.2656 233.987 31.3302L231.055 38.7735ZM233.87 39.2827C234.449 39.2827 235.024 39.2344 235.593 39.1395L234.278 31.2483C234.137 31.2718 234.002 31.2827 233.87 31.2827V39.2827ZM235.72 39.1162C236.07 39.0461 236.324 38.9966 236.489 38.9656L235.015 31.1026C234.802 31.1426 234.511 31.1996 234.151 31.2716L235.72 39.1162ZM231.839 35.8612L233.028 41.4898L240.855 39.8355L239.666 34.2069L231.839 35.8612ZM235.749 36.8447C235.525 36.9146 235.117 37.0227 234.469 37.1679L236.219 44.9742C236.944 44.8116 237.601 44.6474 238.135 44.4806L235.749 36.8447ZM234.405 37.1827C234.058 37.2665 233.506 37.3462 232.696 37.3755L232.985 45.3703C234.139 45.3285 235.257 45.207 236.282 44.9594L234.405 37.1827ZM232.685 37.3759C231.301 37.4298 230.289 37.2376 229.548 36.9376L226.544 44.3521C228.55 45.1649 230.734 45.458 232.996 45.3698L232.685 37.3759ZM229.56 36.9422C228.913 36.6777 228.516 36.3275 228.227 35.881L221.509 40.2242C222.735 42.1214 224.458 43.4993 226.533 44.3476L229.56 36.9422ZM228.227 35.881C227.997 35.525 227.741 34.8653 227.749 33.6401L219.75 33.5871C219.734 35.9368 220.224 38.2364 221.509 40.2242L228.227 35.881ZM227.749 33.6136V7.19318H219.749V33.6136H227.749Z" fill="#00417D" mask="url(#path-1-outside-1_56_19)"/>
</svg>
